<?xml version="1.0" encoding="UTF-8" standalone="no"?>
<!-- Created with Inkscape (http://www.inkscape.org/) -->
<svg
   xmlns:dc="http://purl.org/dc/elements/1.1/"
   xmlns:cc="http://creativecommons.org/ns#"
   xmlns:rdf="http://www.w3.org/1999/02/22-rdf-syntax-ns#"
   xmlns:svg="http://www.w3.org/2000/svg"
   xmlns="http://www.w3.org/2000/svg"
   xmlns:xlink="http://www.w3.org/1999/xlink"
   xmlns:sodipodi="http://sodipodi.sourceforge.net/DTD/sodipodi-0.dtd"
   xmlns:inkscape="http://www.inkscape.org/namespaces/inkscape"
   width="256"
   height="256"
   id="svg2393"
   sodipodi:version="0.32"
   inkscape:version="0.46"
   sodipodi:docname="gmpmpc_icon.svg"
   inkscape:output_extension="org.inkscape.output.svg.inkscape"
   version="1.0"
   style="display:inline"
   inkscape:export-filename="/home/dafox/Projects/mpmp/trunk/src/gtk-client/gmpmpc_icon.png"
   inkscape:export-xdpi="90"
   inkscape:export-ydpi="90">
  <defs
     id="defs2395">
    <linearGradient
       id="linearGradient4567">
      <stop
         style="stop-color:#c7c7cf;stop-opacity:1;"
         offset="0"
         id="stop4569" />
      <stop
         style="stop-color:#f7f7ff;stop-opacity:1;"
         offset="1"
         id="stop4571" />
    </linearGradient>
    <linearGradient
       id="linearGradient4304">
      <stop
         style="stop-color:#b9b9c8;stop-opacity:1;"
         offset="0"
         id="stop4306" />
      <stop
         style="stop-color:#5c5c5c;stop-opacity:1;"
         offset="1"
         id="stop4308" />
    </linearGradient>
    <linearGradient
       id="linearGradient4264">
      <stop
         style="stop-color:#f7f7ff;stop-opacity:1;"
         offset="0"
         id="stop4266" />
      <stop
         style="stop-color:#d0d0d7;stop-opacity:1;"
         offset="1"
         id="stop4268" />
    </linearGradient>
    <linearGradient
       id="linearGradient4210">
      <stop
         id="stop4212"
         offset="0"
         style="stop-color:#59c7ff;stop-opacity:1;" />
      <stop
         style="stop-color:#2c9bef;stop-opacity:1;"
         offset="0.71950431"
         id="stop4214" />
      <stop
         id="stop4216"
         offset="1"
         style="stop-color:#0070e0;stop-opacity:1;" />
    </linearGradient>
    <linearGradient
       id="linearGradient4196">
      <stop
         style="stop-color:#59c7ff;stop-opacity:1;"
         offset="0"
         id="stop4198" />
      <stop
         style="stop-color:#0070e0;stop-opacity:1;"
         offset="1"
         id="stop4200" />
    </linearGradient>
    <linearGradient
       id="linearGradient4179">
      <stop
         style="stop-color:#dbffff;stop-opacity:1"
         offset="0"
         id="stop4181" />
      <stop
         id="stop4193"
         offset="0.16880842"
         style="stop-color:#afdef9;stop-opacity:1" />
      <stop
         id="stop4191"
         offset="0.73387197"
         style="stop-color:#007ce6;stop-opacity:1" />
      <stop
         style="stop-color:#0020ff;stop-opacity:1;"
         offset="1"
         id="stop4183" />
    </linearGradient>
    <linearGradient
       id="linearGradient3224">
      <stop
         style="stop-color:#ffffff;stop-opacity:1;"
         offset="0"
         id="stop3226" />
      <stop
         style="stop-color:#ccccd4;stop-opacity:1;"
         offset="1"
         id="stop3228" />
    </linearGradient>
    <linearGradient
       id="linearGradient3283">
      <stop
         id="stop3285"
         offset="0"
         style="stop-color:#ffffff;stop-opacity:1;" />
      <stop
         id="stop3287"
         offset="1"
         style="stop-color:#ccccd4;stop-opacity:1;" />
    </linearGradient>
    <linearGradient
       id="linearGradient3248">
      <stop
         style="stop-color:#ffffff;stop-opacity:1;"
         offset="0"
         id="stop3250" />
      <stop
         style="stop-color:#66667e;stop-opacity:1;"
         offset="1"
         id="stop3252" />
    </linearGradient>
    <linearGradient
       id="linearGradient2440">
      <stop
         style="stop-color:#ffffff;stop-opacity:1;"
         offset="0"
         id="stop2442" />
      <stop
         style="stop-color:#eae9ee;stop-opacity:1;"
         offset="1"
         id="stop2444" />
    </linearGradient>
    <inkscape:perspective
       sodipodi:type="inkscape:persp3d"
       inkscape:vp_x="0 : 32 : 1"
       inkscape:vp_y="0 : 1000 : 0"
       inkscape:vp_z="64 : 32 : 1"
       inkscape:persp3d-origin="32 : 21.333333 : 1"
       id="perspective2401" />
    <inkscape:perspective
       id="perspective2430"
       inkscape:persp3d-origin="372.04724 : 350.78739 : 1"
       inkscape:vp_z="744.09448 : 526.18109 : 1"
       inkscape:vp_y="0 : 1000 : 0"
       inkscape:vp_x="0 : 526.18109 : 1"
       sodipodi:type="inkscape:persp3d" />
    <linearGradient
       inkscape:collect="always"
       xlink:href="#linearGradient2440"
       id="linearGradient3246"
       x1="124.02972"
       y1="4.4164433"
       x2="124.02972"
       y2="252.28836"
       gradientUnits="userSpaceOnUse" />
    <linearGradient
       inkscape:collect="always"
       xlink:href="#linearGradient3248"
       id="linearGradient3254"
       x1="128.33914"
       y1="252.24081"
       x2="128.33914"
       y2="3.3778477"
       gradientUnits="userSpaceOnUse" />
    <linearGradient
       inkscape:collect="always"
       xlink:href="#linearGradient3283"
       id="linearGradient3289"
       gradientUnits="userSpaceOnUse"
       x1="124.02972"
       y1="4.4164433"
       x2="124.02972"
       y2="252.28836" />
    <linearGradient
       inkscape:collect="always"
       xlink:href="#linearGradient3248"
       id="linearGradient3296"
       gradientUnits="userSpaceOnUse"
       x1="128.33914"
       y1="252.24081"
       x2="128.33914"
       y2="3.3778477"
       gradientTransform="translate(-0.3391325,-0.3286256)" />
    <linearGradient
       inkscape:collect="always"
       xlink:href="#linearGradient3283"
       id="linearGradient3298"
       gradientUnits="userSpaceOnUse"
       x1="124.02972"
       y1="4.4164433"
       x2="124.02972"
       y2="252.28836"
       gradientTransform="translate(-0.3391325,-0.3286256)" />
    <linearGradient
       inkscape:collect="always"
       xlink:href="#linearGradient3283"
       id="linearGradient3304"
       gradientUnits="userSpaceOnUse"
       gradientTransform="matrix(0.95,0,0,0.95,6.0778241,6.0878057)"
       x1="124.02972"
       y1="4.4164433"
       x2="124.02972"
       y2="252.28836" />
    <linearGradient
       inkscape:collect="always"
       xlink:href="#linearGradient3248"
       id="linearGradient3306"
       gradientUnits="userSpaceOnUse"
       x1="128.33914"
       y1="246.08377"
       x2="128.33914"
       y2="10.280645"
       gradientTransform="matrix(0.95,0,0,0.95,6.0778225,6.0878056)" />
    <linearGradient
       inkscape:collect="always"
       xlink:href="#linearGradient3224"
       id="linearGradient3230"
       x1="122.64626"
       y1="-1.5809565"
       x2="122.64626"
       y2="131.93813"
       gradientUnits="userSpaceOnUse" />
    <linearGradient
       inkscape:collect="always"
       xlink:href="#linearGradient3224"
       id="linearGradient3235"
       gradientUnits="userSpaceOnUse"
       x1="122.64626"
       y1="-1.5809565"
       x2="122.64626"
       y2="131.93813"
       gradientTransform="matrix(0.95,0,0,0.95,6.4,3.540625)" />
    <radialGradient
       inkscape:collect="always"
       xlink:href="#linearGradient4179"
       id="radialGradient4187"
       cx="91.100716"
       cy="112.78003"
       fx="91.10072"
       fy="112.78003"
       r="30.044464"
       gradientTransform="matrix(-3.1753816,0.1853199,0.5249117,-1.3456268,328.7791,256.43195)"
       gradientUnits="userSpaceOnUse" />
    <radialGradient
       inkscape:collect="always"
       xlink:href="#linearGradient4196"
       id="radialGradient4204"
       cx="184.30186"
       cy="55.899338"
       fx="184.30186"
       fy="55.899338"
       r="64.49704"
       gradientTransform="matrix(-1.9730804,2.0480678e-2,-2.6813513e-2,-2.5831771,549.44312,177.71599)"
       gradientUnits="userSpaceOnUse" />
    <radialGradient
       inkscape:collect="always"
       xlink:href="#linearGradient4210"
       id="radialGradient4208"
       gradientUnits="userSpaceOnUse"
       gradientTransform="matrix(-2.2556227,0.7121378,-0.5744186,-1.8194115,632.12694,7.5482896)"
       cx="184.30186"
       cy="55.899338"
       fx="184.30186"
       fy="55.899338"
       r="64.49704" />
    <radialGradient
       inkscape:collect="always"
       xlink:href="#linearGradient4210"
       id="radialGradient4236"
       gradientUnits="userSpaceOnUse"
       gradientTransform="matrix(-2.2556227,0.7121378,-0.5744186,-1.8194115,632.12694,7.5482896)"
       cx="184.30186"
       cy="55.899338"
       fx="184.30186"
       fy="55.899338"
       r="64.49704" />
    <radialGradient
       inkscape:collect="always"
       xlink:href="#linearGradient4210"
       id="radialGradient4240"
       gradientUnits="userSpaceOnUse"
       gradientTransform="matrix(-2.2556227,0.7121378,-0.5744186,-1.8194115,632.12694,7.5482896)"
       cx="184.30186"
       cy="55.899338"
       fx="184.30186"
       fy="55.899338"
       r="64.49704" />
    <radialGradient
       inkscape:collect="always"
       xlink:href="#linearGradient4210"
       id="radialGradient4254"
       gradientUnits="userSpaceOnUse"
       gradientTransform="matrix(-2.2556227,0.7121378,-0.5744186,-1.8194115,632.12694,7.5482896)"
       cx="184.30186"
       cy="55.899338"
       fx="184.30186"
       fy="55.899338"
       r="64.49704" />
    <radialGradient
       inkscape:collect="always"
       xlink:href="#linearGradient4210"
       id="radialGradient4258"
       gradientUnits="userSpaceOnUse"
       gradientTransform="matrix(-2.2556227,0.7121378,-0.5744186,-1.8194115,632.12694,7.5482896)"
       cx="184.30186"
       cy="55.899338"
       fx="184.30186"
       fy="55.899338"
       r="64.49704" />
    <radialGradient
       inkscape:collect="always"
       xlink:href="#linearGradient4179"
       id="radialGradient4262"
       gradientUnits="userSpaceOnUse"
       gradientTransform="matrix(-3.1753816,0.1853199,0.5249117,-1.3456268,328.7791,256.43195)"
       cx="91.100716"
       cy="112.78003"
       fx="91.10072"
       fy="112.78003"
       r="30.044464" />
    <linearGradient
       inkscape:collect="always"
       xlink:href="#linearGradient4264"
       id="linearGradient4270"
       x1="121.52601"
       y1="208.94063"
       x2="121.52601"
       y2="31.760363"
       gradientUnits="userSpaceOnUse" />
    <radialGradient
       inkscape:collect="always"
       xlink:href="#linearGradient4210"
       id="radialGradient4294"
       gradientUnits="userSpaceOnUse"
       gradientTransform="matrix(-2.2556227,0.7121378,-0.5744186,-1.8194115,632.12694,7.5482896)"
       cx="184.30186"
       cy="55.899338"
       fx="184.30186"
       fy="55.899338"
       r="64.49704" />
    <linearGradient
       inkscape:collect="always"
       xlink:href="#linearGradient4304"
       id="linearGradient4310"
       x1="57.03717"
       y1="120.39637"
       x2="186.03125"
       y2="120.39637"
       gradientUnits="userSpaceOnUse" />
    <radialGradient
       inkscape:collect="always"
       xlink:href="#linearGradient4210"
       id="radialGradient4521"
       gradientUnits="userSpaceOnUse"
       gradientTransform="matrix(-2.2556227,0.7121378,-0.5744186,-1.8194115,632.12694,7.5482896)"
       cx="184.30186"
       cy="55.899338"
       fx="184.30186"
       fy="55.899338"
       r="64.49704" />
    <linearGradient
       inkscape:collect="always"
       xlink:href="#linearGradient4304"
       id="linearGradient4523"
       gradientUnits="userSpaceOnUse"
       x1="57.03717"
       y1="120.39637"
       x2="186.03125"
       y2="120.39637" />
    <radialGradient
       inkscape:collect="always"
       xlink:href="#linearGradient4179"
       id="radialGradient4525"
       gradientUnits="userSpaceOnUse"
       gradientTransform="matrix(-3.1753816,0.1853199,0.5249117,-1.3456268,328.7791,256.43195)"
       cx="91.100716"
       cy="112.78003"
       fx="91.10072"
       fy="112.78003"
       r="30.044464" />
    <radialGradient
       inkscape:collect="always"
       xlink:href="#linearGradient4179"
       id="radialGradient4527"
       gradientUnits="userSpaceOnUse"
       gradientTransform="matrix(-3.1753816,0.1853199,0.5249117,-1.3456268,328.7791,256.43195)"
       cx="91.100716"
       cy="112.78003"
       fx="91.10072"
       fy="112.78003"
       r="30.044464" />
    <radialGradient
       inkscape:collect="always"
       xlink:href="#linearGradient4210"
       id="radialGradient4529"
       gradientUnits="userSpaceOnUse"
       gradientTransform="matrix(-2.2556227,0.7121378,-0.5744186,-1.8194115,632.12694,7.5482896)"
       cx="184.30186"
       cy="55.899338"
       fx="184.30186"
       fy="55.899338"
       r="64.49704" />
    <radialGradient
       inkscape:collect="always"
       xlink:href="#linearGradient4210"
       id="radialGradient4532"
       gradientUnits="userSpaceOnUse"
       gradientTransform="matrix(-2.2556227,0.7121378,-0.5744186,-1.8194115,689.98545,-34.772814)"
       cx="184.30186"
       cy="55.899338"
       fx="184.30186"
       fy="55.899338"
       r="64.49704" />
    <radialGradient
       inkscape:collect="always"
       xlink:href="#linearGradient4210"
       id="radialGradient4545"
       gradientUnits="userSpaceOnUse"
       gradientTransform="matrix(-2.2556227,0.7121378,-0.5744186,-1.8194115,632.12694,7.5482896)"
       cx="184.30186"
       cy="55.899338"
       fx="184.30186"
       fy="55.899338"
       r="64.49704" />
    <linearGradient
       inkscape:collect="always"
       xlink:href="#linearGradient4304"
       id="linearGradient4547"
       gradientUnits="userSpaceOnUse"
       x1="57.03717"
       y1="120.39637"
       x2="186.03125"
       y2="120.39637" />
    <radialGradient
       inkscape:collect="always"
       xlink:href="#linearGradient4179"
       id="radialGradient4549"
       gradientUnits="userSpaceOnUse"
       gradientTransform="matrix(-3.1753816,0.1853199,0.5249117,-1.3456268,328.7791,256.43195)"
       cx="91.100716"
       cy="112.78003"
       fx="91.10072"
       fy="112.78003"
       r="30.044464" />
    <radialGradient
       inkscape:collect="always"
       xlink:href="#linearGradient4179"
       id="radialGradient4551"
       gradientUnits="userSpaceOnUse"
       gradientTransform="matrix(-3.1753816,0.1853199,0.5249117,-1.3456268,328.7791,256.43195)"
       cx="91.100716"
       cy="112.78003"
       fx="91.10072"
       fy="112.78003"
       r="30.044464" />
    <radialGradient
       inkscape:collect="always"
       xlink:href="#linearGradient4210"
       id="radialGradient4553"
       gradientUnits="userSpaceOnUse"
       gradientTransform="matrix(-2.2556227,0.7121378,-0.5744186,-1.8194115,689.98545,-34.772814)"
       cx="184.30186"
       cy="55.899338"
       fx="184.30186"
       fy="55.899338"
       r="64.49704" />
    <radialGradient
       inkscape:collect="always"
       xlink:href="#linearGradient4210"
       id="radialGradient4556"
       gradientUnits="userSpaceOnUse"
       gradientTransform="matrix(-2.2556227,0.7121378,-0.5744186,-1.8194115,666.98042,-10.838294)"
       cx="184.30186"
       cy="55.899338"
       fx="184.30186"
       fy="55.899338"
       r="64.49704" />
    <radialGradient
       inkscape:collect="always"
       xlink:href="#linearGradient4210"
       id="radialGradient4562"
       gradientUnits="userSpaceOnUse"
       gradientTransform="matrix(-2.2556227,0.7121378,-0.5744186,-1.8194115,666.98042,-10.838294)"
       cx="184.30186"
       cy="55.899338"
       fx="184.30186"
       fy="55.899338"
       r="64.49704" />
    <linearGradient
       inkscape:collect="always"
       xlink:href="#linearGradient4567"
       id="linearGradient4573"
       x1="50.42263"
       y1="30.496786"
       x2="192.62502"
       y2="214.79094"
       gradientUnits="userSpaceOnUse" />
  </defs>
  <sodipodi:namedview
     id="base"
     pagecolor="#ffffff"
     bordercolor="#666666"
     borderopacity="1.0"
     inkscape:pageopacity="0.0"
     inkscape:pageshadow="2"
     inkscape:zoom="3.0429688"
     inkscape:cx="127.03415"
     inkscape:cy="127.61246"
     inkscape:current-layer="layer2"
     showgrid="true"
     inkscape:document-units="px"
     inkscape:grid-bbox="true"
     inkscape:window-width="1400"
     inkscape:window-height="999"
     inkscape:window-x="0"
     inkscape:window-y="27" />
  <metadata
     id="metadata2398">
    <rdf:RDF>
      <cc:Work
         rdf:about="">
        <dc:format>image/svg+xml</dc:format>
        <dc:type
           rdf:resource="http://purl.org/dc/dcmitype/StillImage" />
      </cc:Work>
    </rdf:RDF>
  </metadata>
  <g
     inkscape:groupmode="layer"
     id="layer2"
     inkscape:label="background"
     style="display:inline">
    <path
       style="opacity:1;fill:#000000;fill-opacity:0.50196078;fill-rule:nonzero;stroke:none;stroke-width:12.34175968;stroke-linecap:round;stroke-miterlimit:4;stroke-dasharray:none;stroke-dashoffset:0;stroke-opacity:1;display:inline"
       d="M 47.638912,4.403511 C 21.601737,4.403511 0.44468875,25.560558 0.44468875,51.59773 L 0.44468875,204.40226 C 0.44468875,230.43944 21.601737,251.59649 47.638912,251.59649 L 208.3611,251.59649 C 234.39826,251.59649 255.5553,230.43944 255.55531,204.40226 L 255.55531,51.59773 C 255.55531,25.560557 234.39826,4.403511 208.3611,4.403511 L 47.638912,4.403511 z M 47.638912,16.716402 L 208.3611,16.716402 C 227.79097,16.716402 243.24242,32.167854 243.24242,51.59773 L 243.24242,204.40226 C 243.24241,223.83215 227.79097,239.2836 208.3611,239.2836 L 47.638912,239.2836 C 28.20903,239.2836 12.757576,223.83214 12.757576,204.40226 L 12.757576,51.59773 C 12.757576,32.167856 28.20903,16.716402 47.638912,16.716402 z"
       id="path2463" />
    <rect
       style="opacity:1;fill:url(#linearGradient3306);fill-opacity:1;fill-rule:nonzero;stroke:none;stroke-width:12.34175968;stroke-linecap:round;stroke-miterlimit:4;stroke-dasharray:none;stroke-dashoffset:0;stroke-opacity:1;display:inline"
       width="231.23395"
       height="223.70848"
       x="12.383024"
       y="16.145763"
       rx="39.081184"
       ry="39.081184"
       id="rect2408" />
    <path
       style="opacity:1;fill:url(#linearGradient3235);fill-opacity:1;fill-rule:nonzero;stroke:none;stroke-width:12.80000019;stroke-linecap:round;stroke-miterlimit:4;stroke-dasharray:none;stroke-dashoffset:0;stroke-opacity:1"
       d="M 51.465625,13.278125 C 29.814649,13.278125 12.396875,30.725587 12.396875,52.376562 L 12.396875,99.134375 C 46.786943,117.76313 86.166071,128.34687 128,128.34687 C 169.83393,128.34687 209.21306,117.76313 243.60313,99.134375 L 243.60313,52.376562 C 243.60313,30.725587 226.18535,13.278125 204.53438,13.278125 L 51.465625,13.278125 z"
       id="rect3256" />
    <path
       style="opacity:1;fill:url(#linearGradient3304);fill-opacity:1;fill-rule:nonzero;stroke:none;stroke-width:12.34175968;stroke-linecap:round;stroke-miterlimit:4;stroke-dasharray:none;stroke-dashoffset:0;stroke-opacity:1;display:inline"
       d="M 51.465625,10.289062 C 26.668317,10.289062 6.51875,30.438631 6.51875,55.235937 L 6.51875,200.76406 C 6.51875,225.56137 26.668317,245.71094 51.465625,245.71094 L 204.53438,245.71094 C 229.33168,245.71094 249.48124,225.56137 249.48125,200.76406 L 249.48125,55.235937 C 249.48125,30.43863 229.33168,10.289062 204.53438,10.289062 L 51.465625,10.289062 z M 51.465625,22.015625 L 204.53438,22.015625 C 223.03902,22.015625 237.75469,36.731293 237.75469,55.235937 L 237.75469,200.76406 C 237.75468,219.26871 223.03902,233.98438 204.53438,233.98438 L 51.465625,233.98438 C 32.960982,233.98438 18.245312,219.2687 18.245312,200.76406 L 18.245312,55.235937 C 18.245312,36.731295 32.960981,22.015625 51.465625,22.015625 z"
       id="rect2436" />
  </g>
  <g
     inkscape:groupmode="layer"
     id="layer3"
     inkscape:label="note"
     style="display:inline">
    <path
       sodipodi:type="inkscape:offset"
       inkscape:radius="6.6093564"
       inkscape:original="M 182.75 37.09375 C 182.45249 37.104879 182.15798 37.15747 181.875 37.25 L 106.5625 61.0625 C 105.22199 61.479359 104.30964 62.721171 104.3125 64.125 L 104.21875 154.09375 C 100.65287 151.3134 95.92321 150.31003 90.96875 150.84375 C 84.54765 151.53546 77.53109 154.7021 71.25 160.09375 C 64.968908 165.48541 60.53809 172.16242 58.40625 178.8125 C 57.27371 182.34535 56.808559 185.93649 57.15625 189.28125 C 56.71379 193.89658 57.566099 198.3325 60.09375 201.84375 C 63.704677 206.85983 69.79766 208.75422 76.21875 208.0625 C 82.63984 207.37079 89.59391 204.20415 95.875 198.8125 C 102.15609 193.42084 106.64941 186.74383 108.78125 180.09375 C 109.64935 176.95145 110.59051 173.70516 110.59375 170.5 L 110.59375 166 L 110.65625 108.59375 L 179.65625 86.84375 L 179.65625 142.3125 C 176.07669 139.45751 171.29327 138.42883 166.28125 138.96875 C 159.86016 139.66046 152.87484 142.8271 146.59375 148.21875 C 140.31266 153.61041 135.85059 160.28742 133.71875 166.9375 C 132.58621 170.47035 132.12106 174.06149 132.46875 177.40625 C 132.02629 182.02158 132.8786 186.4575 135.40625 189.96875 C 139.01718 194.98484 145.11016 196.84797 151.53125 196.15625 C 157.95235 195.46454 164.90641 192.2979 171.1875 186.90625 C 177.4686 181.5146 181.96191 174.86883 184.09375 168.21875 C 185.26582 163.63349 186.03125 158.85477 186.03125 154.34375 L 186.03125 149.84375 L 186.03125 40.28125 C 186.02808 39.420487 185.67991 38.599771 185.0625 38 C 184.4451 37.400231 183.61049 37.071977 182.75 37.09375 z M 179.65625 49.15625 L 179.65625 75.65625 L 110.6875 97.40625 L 110.71875 70.9375 L 179.65625 49.15625 z "
       xlink:href="#path4511"
       style="fill:url(#linearGradient4573);fill-opacity:1;fill-rule:evenodd;stroke:none;stroke-width:6.40000009999999975;stroke-linecap:butt;stroke-linejoin:miter;stroke-miterlimit:4;stroke-dasharray:none;stroke-opacity:1;display:inline"
       id="path4565"
       d="M 182.5,30.5 C 181.58805,30.534113 180.67988,30.68513 179.8125,30.96875 L 104.5625,54.75 C 100.47995,56.019554 97.71004,59.84963 97.71875,64.125 L 97.625,144.5 C 95.190669,144.12872 92.697489,144.01759 90.25,144.28125 C 82.202974,145.14811 74.093981,148.95067 66.9375,155.09375 C 59.775722,161.24139 54.676931,168.82073 52.125,176.78125 C 50.890587,180.63188 50.367869,184.65733 50.59375,188.65625 L 50.5625,188.65625 C 50.004705,194.47465 51.060626,200.63712 54.71875,205.71875 C 59.928324,212.95557 68.796075,215.50205 76.9375,214.625 C 84.989057,213.75765 93.047459,209.94147 100.1875,203.8125 C 107.33283,197.67898 112.4991,190.12128 115.0625,182.125 C 115.09585,182.03196 115.12711,181.93819 115.15625,181.84375 C 116.00897,178.75712 117.18296,174.99449 117.1875,170.5 L 117.1875,166 L 117.25,113.46875 L 173.0625,95.875 L 173.0625,132.65625 C 170.58576,132.26639 168.05245,132.13802 165.5625,132.40625 C 157.51321,133.27336 149.42951,137.08272 142.28125,143.21875 C 135.1277,149.35933 129.99516,156.92785 127.4375,164.90625 C 126.20309,168.75688 125.68037,172.78233 125.90625,176.78125 L 125.875,176.78125 C 125.3172,182.59965 126.37313,188.76212 130.03125,193.84375 C 135.24843,201.09115 144.12966,203.59352 152.25,202.71875 C 160.30157,201.8514 168.35996,198.03522 175.5,191.90625 C 182.63578,185.78095 187.80977,178.252 190.375,170.25 C 190.42101,170.11596 190.4627,169.98047 190.5,169.84375 C 191.77396,164.8599 192.625,159.60242 192.625,154.34375 L 192.625,149.84375 L 192.625,40.28125 C 192.62502,40.270833 192.62502,40.260417 192.625,40.25 C 192.61532,37.622466 191.54438,35.084185 189.65625,33.25 C 187.76806,31.41573 185.24152,30.433003 182.59375,30.5 C 182.5625,30.499778 182.53125,30.499778 182.5,30.5 L 182.5,30.5 z M 173.0625,58.1875 L 173.0625,70.78125 L 117.28125,88.375 L 117.3125,75.8125 L 173.0625,58.1875 z"
       inkscape:href="#path4511" />
    <path
       style="fill:#00cc1c;fill-opacity:1;fill-rule:evenodd;stroke:none;stroke-width:6.4000001;stroke-linecap:butt;stroke-linejoin:miter;stroke-miterlimit:4;stroke-dasharray:none;stroke-opacity:1;display:inline"
       d="M 182.75,37.09375 C 182.45249,37.104879 182.15798,37.15747 181.875,37.25 L 106.5625,61.0625 C 105.22199,61.479359 104.30964,62.721171 104.3125,64.125 L 104.21875,154.09375 C 100.65287,151.3134 95.92321,150.31003 90.96875,150.84375 C 84.54765,151.53546 77.53109,154.7021 71.25,160.09375 C 64.968908,165.48541 60.53809,172.16242 58.40625,178.8125 C 57.27371,182.34535 56.808559,185.93649 57.15625,189.28125 C 56.71379,193.89658 57.566099,198.3325 60.09375,201.84375 C 63.704677,206.85983 69.79766,208.75422 76.21875,208.0625 C 82.63984,207.37079 89.59391,204.20415 95.875,198.8125 C 102.15609,193.42084 106.64941,186.74383 108.78125,180.09375 C 109.64935,176.95145 110.59051,173.70516 110.59375,170.5 L 110.59375,166 L 110.65625,108.59375 L 179.65625,86.84375 L 179.65625,142.3125 C 176.07669,139.45751 171.29327,138.42883 166.28125,138.96875 C 159.86016,139.66046 152.87484,142.8271 146.59375,148.21875 C 140.31266,153.61041 135.85059,160.28742 133.71875,166.9375 C 132.58621,170.47035 132.12106,174.06149 132.46875,177.40625 C 132.02629,182.02158 132.8786,186.4575 135.40625,189.96875 C 139.01718,194.98484 145.11016,196.84797 151.53125,196.15625 C 157.95235,195.46454 164.90641,192.2979 171.1875,186.90625 C 177.4686,181.5146 181.96191,174.86883 184.09375,168.21875 C 185.26582,163.63349 186.03125,158.85477 186.03125,154.34375 L 186.03125,149.84375 L 186.03125,40.28125 C 186.02808,39.420487 185.67991,38.599771 185.0625,38 C 184.4451,37.400231 183.61049,37.071977 182.75,37.09375 z M 179.65625,49.15625 L 179.65625,75.65625 L 110.6875,97.40625 L 110.71875,70.9375 L 179.65625,49.15625 z"
       id="path4511" />
    <g
       id="g4502">
      <path
         inkscape:href="#path3249"
         d="M 182.75,37.09375 C 182.45249,37.10488 182.15798,37.15747 181.875,37.25 L 106.5625,61.0625 C 105.22199,61.479358 104.30964,62.721171 104.3125,64.125 L 104.21875,154.09375 C 100.65287,151.3134 95.923198,150.31003 90.96875,150.84375 C 84.547656,151.53546 77.531093,154.7021 71.25,160.09375 C 64.968906,165.48541 60.538089,172.16242 58.40625,178.8125 C 56.274409,185.46257 56.48282,192.32768 60.09375,197.34375 C 63.704679,202.35983 69.797655,204.25422 76.21875,203.5625 C 82.639844,202.87079 89.593907,199.70415 95.875,194.3125 C 102.15609,188.92084 106.64941,182.24383 108.78125,175.59375 C 109.64935,172.45145 110.59051,169.20516 110.59375,166 L 110.65625,104.09375 L 179.65625,82.34375 L 179.65625,142.3125 C 176.07669,139.45751 171.29327,138.42883 166.28125,138.96875 C 159.86016,139.66046 152.87484,142.8271 146.59375,148.21875 C 140.31266,153.61041 135.85059,160.28742 133.71875,166.9375 C 131.58692,173.58757 131.79532,180.45268 135.40625,185.46875 C 139.01718,190.48484 145.11016,192.34797 151.53125,191.65625 C 157.95235,190.96454 164.90641,187.7979 171.1875,182.40625 C 177.4686,177.0146 181.96191,170.36883 184.09375,163.71875 C 185.26582,159.13349 186.03125,154.35477 186.03125,149.84375 L 186.03125,40.28125 C 186.02808,39.420488 185.67991,38.599771 185.0625,38 C 184.4451,37.400232 183.61049,37.071977 182.75,37.09375 z M 179.65625,44.65625 L 179.65625,75.65625 L 110.6875,97.40625 L 110.71875,66.4375 L 179.65625,44.65625 z M 168.59375,144.28125 C 172.93803,144.22947 176.35955,145.71934 178.40625,148.5625 C 180.74534,151.81182 181.12189,156.55072 179.375,162 C 177.6281,167.44927 173.7397,173.3947 168.15625,178.1875 C 162.57279,182.9803 156.38665,185.65194 151.125,186.21875 C 145.86336,186.78555 141.74533,185.28057 139.40625,182.03125 C 137.06716,178.78193 136.72186,174.07429 138.46875,168.625 C 140.21564,163.17573 144.0728,157.26155 149.65625,152.46875 C 155.2397,147.67595 161.42586,144.97305 166.6875,144.40625 C 167.34521,144.3354 167.97314,144.28865 168.59375,144.28125 z M 93.28125,156.15625 C 97.625528,156.10447 101.04705,157.59435 103.09375,160.4375 C 103.55102,161.07271 103.91583,161.78703 104.21875,162.53125 C 105.00706,164.46798 105.34491,166.28854 105.09375,168.5 C 104.90277,170.18159 104.63825,171.98151 104.03125,173.875 C 102.28436,179.32429 98.427201,185.2697 92.84375,190.0625 C 87.260294,194.8553 81.074147,197.55819 75.8125,198.125 C 70.550856,198.69179 66.432839,197.18682 64.09375,193.9375 C 61.754664,190.68818 61.37811,185.98054 63.125,180.53125 C 64.871891,175.08198 68.760296,169.1678 74.34375,164.375 C 79.927202,159.5822 86.113353,156.84805 91.375,156.28125 C 92.032706,156.2104 92.660639,156.16365 93.28125,156.15625 z"
         id="path4238"
         style="fill:url(#radialGradient4254);fill-opacity:1;fill-rule:evenodd;stroke:none;stroke-width:6.4000001;stroke-linecap:butt;stroke-linejoin:miter;stroke-miterlimit:4;stroke-dasharray:none;stroke-opacity:1;display:inline"
         xlink:href="#path3249"
         inkscape:original="M 182.75 37.09375 C 182.45249 37.10488 182.15798 37.15747 181.875 37.25 L 106.5625 61.0625 C 105.22199 61.479358 104.30964 62.721171 104.3125 64.125 L 104.21875 154.09375 C 100.65287 151.3134 95.923198 150.31003 90.96875 150.84375 C 84.547656 151.53546 77.531093 154.7021 71.25 160.09375 C 64.968906 165.48541 60.538089 172.16242 58.40625 178.8125 C 56.274409 185.46257 56.48282 192.32768 60.09375 197.34375 C 63.704679 202.35983 69.797655 204.25422 76.21875 203.5625 C 82.639844 202.87079 89.593907 199.70415 95.875 194.3125 C 102.15609 188.92084 106.64941 182.24383 108.78125 175.59375 C 109.64935 172.45145 110.59051 169.20516 110.59375 166 L 110.65625 104.09375 L 179.65625 82.34375 L 179.65625 142.3125 C 176.07669 139.45751 171.29327 138.42883 166.28125 138.96875 C 159.86016 139.66046 152.87484 142.8271 146.59375 148.21875 C 140.31266 153.61041 135.85059 160.28742 133.71875 166.9375 C 131.58692 173.58757 131.79532 180.45268 135.40625 185.46875 C 139.01718 190.48484 145.11016 192.34797 151.53125 191.65625 C 157.95235 190.96454 164.90641 187.7979 171.1875 182.40625 C 177.4686 177.0146 181.96191 170.36883 184.09375 163.71875 C 185.26582 159.13349 186.03125 154.35477 186.03125 149.84375 L 186.03125 40.28125 C 186.02808 39.420488 185.67991 38.599771 185.0625 38 C 184.4451 37.400232 183.61049 37.071977 182.75 37.09375 z M 179.65625 44.65625 L 179.65625 75.65625 L 110.6875 97.40625 L 110.71875 66.4375 L 179.65625 44.65625 z M 168.59375 144.28125 C 172.93803 144.22947 176.35955 145.71934 178.40625 148.5625 C 180.74534 151.81182 181.12189 156.55072 179.375 162 C 177.6281 167.44927 173.7397 173.3947 168.15625 178.1875 C 162.57279 182.9803 156.38665 185.65194 151.125 186.21875 C 145.86336 186.78555 141.74533 185.28057 139.40625 182.03125 C 137.06716 178.78193 136.72186 174.07429 138.46875 168.625 C 140.21564 163.17573 144.0728 157.26155 149.65625 152.46875 C 155.2397 147.67595 161.42586 144.97305 166.6875 144.40625 C 167.34521 144.3354 167.97314 144.28865 168.59375 144.28125 z M 93.28125 156.15625 C 97.625528 156.10447 101.04705 157.59435 103.09375 160.4375 C 103.55102 161.07271 103.91583 161.78703 104.21875 162.53125 C 105.00706 164.46798 105.34491 166.28854 105.09375 168.5 C 104.90277 170.18159 104.63825 171.98151 104.03125 173.875 C 102.28436 179.32429 98.427201 185.2697 92.84375 190.0625 C 87.260294 194.8553 81.074147 197.55819 75.8125 198.125 C 70.550856 198.69179 66.432839 197.18682 64.09375 193.9375 C 61.754664 190.68818 61.37811 185.98054 63.125 180.53125 C 64.871891 175.08198 68.760296 169.1678 74.34375 164.375 C 79.927202 159.5822 86.113353 156.84805 91.375 156.28125 C 92.032706 156.2104 92.660639 156.16365 93.28125 156.15625 z "
         inkscape:radius="0"
         sodipodi:type="inkscape:offset" />
      <path
         transform="translate(0,4.5)"
         d="M 182.75,37.09375 C 182.45249,37.10488 182.15798,37.15747 181.875,37.25 L 106.5625,61.0625 C 105.22199,61.479358 104.30964,62.721171 104.3125,64.125 L 104.21875,154.09375 C 100.65287,151.3134 95.923198,150.31003 90.96875,150.84375 C 84.547656,151.53546 77.531093,154.7021 71.25,160.09375 C 64.968906,165.48541 60.538089,172.16242 58.40625,178.8125 C 56.274409,185.46257 56.48282,192.32768 60.09375,197.34375 C 63.704679,202.35983 69.797655,204.25422 76.21875,203.5625 C 82.639844,202.87079 89.593907,199.70415 95.875,194.3125 C 102.15609,188.92084 106.64941,182.24383 108.78125,175.59375 C 109.64935,172.45145 110.59051,169.20516 110.59375,166 L 110.65625,104.09375 L 179.65625,82.34375 L 179.65625,142.3125 C 176.07669,139.45751 171.29327,138.42883 166.28125,138.96875 C 159.86016,139.66046 152.87484,142.8271 146.59375,148.21875 C 140.31266,153.61041 135.85059,160.28742 133.71875,166.9375 C 131.58692,173.58757 131.79532,180.45268 135.40625,185.46875 C 139.01718,190.48484 145.11016,192.34797 151.53125,191.65625 C 157.95235,190.96454 164.90641,187.7979 171.1875,182.40625 C 177.4686,177.0146 181.96191,170.36883 184.09375,163.71875 C 185.26582,159.13349 186.03125,154.35477 186.03125,149.84375 L 186.03125,40.28125 C 186.02808,39.420488 185.67991,38.599771 185.0625,38 C 184.4451,37.400232 183.61049,37.071977 182.75,37.09375 z M 179.65625,44.65625 L 179.65625,75.65625 L 110.6875,97.40625 L 110.71875,66.4375 L 179.65625,44.65625 z M 168.59375,144.28125 C 172.93803,144.22947 176.35955,145.71934 178.40625,148.5625 C 180.74534,151.81182 181.12189,156.55072 179.375,162 C 177.6281,167.44927 173.7397,173.3947 168.15625,178.1875 C 162.57279,182.9803 156.38665,185.65194 151.125,186.21875 C 145.86336,186.78555 141.74533,185.28057 139.40625,182.03125 C 137.06716,178.78193 136.72186,174.07429 138.46875,168.625 C 140.21564,163.17573 144.0728,157.26155 149.65625,152.46875 C 155.2397,147.67595 161.42586,144.97305 166.6875,144.40625 C 167.34521,144.3354 167.97314,144.28865 168.59375,144.28125 z M 93.28125,156.15625 C 97.625528,156.10447 101.04705,157.59435 103.09375,160.4375 C 103.55102,161.07271 103.91583,161.78703 104.21875,162.53125 C 105.00706,164.46798 105.34491,166.28854 105.09375,168.5 C 104.90277,170.18159 104.63825,171.98151 104.03125,173.875 C 102.28436,179.32429 98.427201,185.2697 92.84375,190.0625 C 87.260294,194.8553 81.074147,197.55819 75.8125,198.125 C 70.550856,198.69179 66.432839,197.18682 64.09375,193.9375 C 61.754664,190.68818 61.37811,185.98054 63.125,180.53125 C 64.871891,175.08198 68.760296,169.1678 74.34375,164.375 C 79.927202,159.5822 86.113353,156.84805 91.375,156.28125 C 92.032706,156.2104 92.660639,156.16365 93.28125,156.15625 z"
         inkscape:href="#path3249"
         id="path4292"
         style="fill:url(#linearGradient4310);fill-opacity:1;fill-rule:evenodd;stroke:none;stroke-width:6.4000001;stroke-linecap:butt;stroke-linejoin:miter;stroke-miterlimit:4;stroke-dasharray:none;stroke-opacity:1;display:inline"
         xlink:href="#path3249"
         inkscape:original="M 182.75 37.09375 C 182.45249 37.10488 182.15798 37.15747 181.875 37.25 L 106.5625 61.0625 C 105.22199 61.479358 104.30964 62.721171 104.3125 64.125 L 104.21875 154.09375 C 100.65287 151.3134 95.923198 150.31003 90.96875 150.84375 C 84.547656 151.53546 77.531093 154.7021 71.25 160.09375 C 64.968906 165.48541 60.538089 172.16242 58.40625 178.8125 C 56.274409 185.46257 56.48282 192.32768 60.09375 197.34375 C 63.704679 202.35983 69.797655 204.25422 76.21875 203.5625 C 82.639844 202.87079 89.593907 199.70415 95.875 194.3125 C 102.15609 188.92084 106.64941 182.24383 108.78125 175.59375 C 109.64935 172.45145 110.59051 169.20516 110.59375 166 L 110.65625 104.09375 L 179.65625 82.34375 L 179.65625 142.3125 C 176.07669 139.45751 171.29327 138.42883 166.28125 138.96875 C 159.86016 139.66046 152.87484 142.8271 146.59375 148.21875 C 140.31266 153.61041 135.85059 160.28742 133.71875 166.9375 C 131.58692 173.58757 131.79532 180.45268 135.40625 185.46875 C 139.01718 190.48484 145.11016 192.34797 151.53125 191.65625 C 157.95235 190.96454 164.90641 187.7979 171.1875 182.40625 C 177.4686 177.0146 181.96191 170.36883 184.09375 163.71875 C 185.26582 159.13349 186.03125 154.35477 186.03125 149.84375 L 186.03125 40.28125 C 186.02808 39.420488 185.67991 38.599771 185.0625 38 C 184.4451 37.400232 183.61049 37.071977 182.75 37.09375 z M 179.65625 44.65625 L 179.65625 75.65625 L 110.6875 97.40625 L 110.71875 66.4375 L 179.65625 44.65625 z M 168.59375 144.28125 C 172.93803 144.22947 176.35955 145.71934 178.40625 148.5625 C 180.74534 151.81182 181.12189 156.55072 179.375 162 C 177.6281 167.44927 173.7397 173.3947 168.15625 178.1875 C 162.57279 182.9803 156.38665 185.65194 151.125 186.21875 C 145.86336 186.78555 141.74533 185.28057 139.40625 182.03125 C 137.06716 178.78193 136.72186 174.07429 138.46875 168.625 C 140.21564 163.17573 144.0728 157.26155 149.65625 152.46875 C 155.2397 147.67595 161.42586 144.97305 166.6875 144.40625 C 167.34521 144.3354 167.97314 144.28865 168.59375 144.28125 z M 93.28125 156.15625 C 97.625528 156.10447 101.04705 157.59435 103.09375 160.4375 C 103.55102 161.07271 103.91583 161.78703 104.21875 162.53125 C 105.00706 164.46798 105.34491 166.28854 105.09375 168.5 C 104.90277 170.18159 104.63825 171.98151 104.03125 173.875 C 102.28436 179.32429 98.427201 185.2697 92.84375 190.0625 C 87.260294 194.8553 81.074147 197.55819 75.8125 198.125 C 70.550856 198.69179 66.432839 197.18682 64.09375 193.9375 C 61.754664 190.68818 61.37811 185.98054 63.125 180.53125 C 64.871891 175.08198 68.760296 169.1678 74.34375 164.375 C 79.927202 159.5822 86.113353 156.84805 91.375 156.28125 C 92.032706 156.2104 92.660639 156.16365 93.28125 156.15625 z "
         inkscape:radius="0"
         sodipodi:type="inkscape:offset" />
      <path
         transform="matrix(0.7153978,-0.6140931,0.5516458,0.7663117,10.535838,115.51537)"
         d="M 127.15321,142.7597 A 30.044464,19.539747 0 1 1 67.064278,142.7597 A 30.044464,19.539747 0 1 1 127.15321,142.7597 z"
         sodipodi:ry="19.539747"
         sodipodi:rx="30.044464"
         sodipodi:cy="142.7597"
         sodipodi:cx="97.108742"
         id="path3241"
         style="opacity:1;fill:url(#radialGradient4187);fill-opacity:1;fill-rule:nonzero;stroke:none;stroke-width:5.54256582;stroke-linecap:round;stroke-miterlimit:4;stroke-dasharray:none;stroke-dashoffset:0;stroke-opacity:1;display:inline"
         sodipodi:type="arc" />
      <path
         transform="matrix(0.7153978,-0.6140931,0.5516458,0.7663117,-64.753055,127.36503)"
         d="M 127.15321,142.7597 A 30.044464,19.539747 0 1 1 67.064278,142.7597 A 30.044464,19.539747 0 1 1 127.15321,142.7597 z"
         sodipodi:ry="19.539747"
         sodipodi:rx="30.044464"
         sodipodi:cy="142.7597"
         sodipodi:cx="97.108742"
         id="path4260"
         style="opacity:1;fill:url(#radialGradient4262);fill-opacity:1;fill-rule:nonzero;stroke:none;stroke-width:5.54256582;stroke-linecap:round;stroke-miterlimit:4;stroke-dasharray:none;stroke-dashoffset:0;stroke-opacity:1;display:inline"
         sodipodi:type="arc" />
      <path
         sodipodi:nodetypes="cccccsssssscscccsssssscscscccccccssssssssccssssssssssc"
         id="path3249"
         d="M 182.75,37.09375 C 182.45249,37.10488 182.15798,37.15747 181.875,37.25 L 106.5625,61.0625 C 105.22199,61.479358 104.30964,62.721171 104.3125,64.125 L 104.21875,154.09375 C 100.65287,151.3134 95.923198,150.31003 90.96875,150.84375 C 84.547656,151.53546 77.531093,154.7021 71.25,160.09375 C 64.968906,165.48541 60.538089,172.16242 58.40625,178.8125 C 56.274409,185.46257 56.48282,192.32768 60.09375,197.34375 C 63.704679,202.35983 69.797655,204.25422 76.21875,203.5625 C 82.639844,202.87079 89.593907,199.70415 95.875,194.3125 C 102.15609,188.92084 106.64941,182.24383 108.78125,175.59375 C 109.64935,172.45145 110.59051,169.20516 110.59375,166 L 110.65625,104.09375 L 179.65625,82.34375 L 179.65625,142.3125 C 176.07669,139.45751 171.29327,138.42883 166.28125,138.96875 C 159.86016,139.66046 152.87484,142.8271 146.59375,148.21875 C 140.31266,153.61041 135.85059,160.28742 133.71875,166.9375 C 131.58692,173.58757 131.79532,180.45268 135.40625,185.46875 C 139.01718,190.48484 145.11016,192.34797 151.53125,191.65625 C 157.95235,190.96454 164.90641,187.7979 171.1875,182.40625 C 177.4686,177.0146 181.96191,170.36883 184.09375,163.71875 C 185.26582,159.13349 186.03125,154.35477 186.03125,149.84375 L 186.03125,40.28125 C 186.02808,39.420488 185.67991,38.599771 185.0625,38 C 184.4451,37.400232 183.61049,37.071977 182.75,37.09375 z M 179.65625,44.65625 L 179.65625,75.65625 L 110.6875,97.40625 L 110.71875,66.4375 L 179.65625,44.65625 z M 168.59375,144.28125 C 172.93803,144.22947 176.35955,145.71934 178.40625,148.5625 C 180.74534,151.81182 181.12189,156.55072 179.375,162 C 177.6281,167.44927 173.7397,173.3947 168.15625,178.1875 C 162.57279,182.9803 156.38665,185.65194 151.125,186.21875 C 145.86336,186.78555 141.74533,185.28057 139.40625,182.03125 C 137.06716,178.78193 136.72186,174.07429 138.46875,168.625 C 140.21564,163.17573 144.0728,157.26155 149.65625,152.46875 C 155.2397,147.67595 161.42586,144.97305 166.6875,144.40625 C 167.34521,144.3354 167.97314,144.28865 168.59375,144.28125 z M 93.28125,156.15625 C 97.625528,156.10447 101.04705,157.59435 103.09375,160.4375 C 103.55102,161.07271 103.91583,161.78703 104.21875,162.53125 C 105.00706,164.46798 105.34491,166.28854 105.09375,168.5 C 104.90277,170.18159 104.63825,171.98151 104.03125,173.875 C 102.28436,179.32429 98.427201,185.2697 92.84375,190.0625 C 87.260294,194.8553 81.074147,197.55819 75.8125,198.125 C 70.550856,198.69179 66.432839,197.18682 64.09375,193.9375 C 61.754664,190.68818 61.37811,185.98054 63.125,180.53125 C 64.871891,175.08198 68.760296,169.1678 74.34375,164.375 C 79.927202,159.5822 86.113353,156.84805 91.375,156.28125 C 92.032706,156.2104 92.660639,156.16365 93.28125,156.15625 z"
         style="fill:url(#radialGradient4294);fill-opacity:1;fill-rule:evenodd;stroke:none;stroke-width:6.4000001;stroke-linecap:butt;stroke-linejoin:miter;stroke-miterlimit:4;stroke-dasharray:none;stroke-opacity:1;display:inline" />
    </g>
  </g>
  <g
     id="layer1"
     inkscape:label="Layer 1"
     inkscape:groupmode="layer"
     style="display:none">
    <image
       y="4.1461339"
       x="-0.49425355"
       id="image2432"
       height="248.78876"
       width="256.07928"
       sodipodi:absref="/home/dafox/Desktop/mp3.jpg"
       xlink:href="/home/dafox/Desktop/mp3.jpg" />
  </g>
</svg>
